<?xml version="1.0" standalone="no"?>
<svg xmlns="http://www.w3.org/2000/svg" viewBox="0 0 198.984 26.265" width="198.984" height="26.265"><g fill="#fea701" color="#fea701" transform="translate(0, 0) scale(0.5471699)"><svg width="53.0" height="48.0" x="0.0" y="0.0" viewBox="0 0 53 48"><path fill="currentColor" fill-rule="evenodd" d="M14.18 0L0 8.432v16.864l14.18 8.435L24 27.846v11.72L38.181 48l14.181-8.434V22.704l-14.181-8.433-9.818 5.883V8.432L14.18 0zM4.364 22.814V10.915l9.817-5.84L24 10.915v11.853l-9.819 5.885-9.817-5.839zm23.999 14.27V25.23l9.818-5.884 9.818 5.837v11.9L38.18 42.92l-9.818-5.837z"></path></svg></g><line x1="41" y1="1" x2="41" y2="25.265" stroke="#fe4e01" stroke-linecap="round"></line><path fill="#fe4e01" fill-rule="nonzero" d="M13.68 11.06Q13.68 14.16 11.92 15.62Q10.15 17.09 6.84 17.09L6.84 17.09Q3.53 17.09 1.76 15.62Q0 14.16 0 11.06L0 11.06L0 10.85L4.97 10.85L4.97 11.04Q4.97 12.17 5.39 12.65Q5.81 13.13 6.67 13.13L6.67 13.13Q7.54 13.13 7.96 12.65Q8.38 12.17 8.38 11.04L8.38 11.04L8.38 0.29L13.68 0.29L13.68 11.06ZM36.67 16.80L31.42 16.80L31.42 10.85Q31.42 9.74 31.50 8.58Q31.58 7.42 31.68 6.62Q31.78 5.83 31.80 5.62L31.80 5.62L31.70 5.62L28.66 16.80L24.50 16.80L21.43 5.64L21.34 5.64Q21.36 5.86 21.47 6.64Q21.58 7.42 21.67 8.58Q21.77 9.74 21.77 10.85L21.77 10.85L21.77 16.80L16.90 16.80L16.90 0.29L24.38 0.29L26.88 9.82L26.98 9.82L29.45 0.29L36.67 0.29L36.67 16.80ZM39.89 16.80L39.89 0.29L45.19 0.29L45.19 12.58L53.66 12.58L53.66 16.80L39.89 16.80ZM62.11 3.84Q65.59 3.84 67.43 5.47Q69.26 7.10 69.26 10.46L69.26 10.46L69.26 11.28L59.76 11.28Q59.76 12.65 60.37 13.34Q60.98 14.04 62.30 14.04L62.30 14.04Q63.50 14.04 64.07 13.54Q64.63 13.03 64.63 12.19L64.63 12.19L69.26 12.19Q69.26 14.50 67.51 15.79Q65.76 17.09 62.40 17.09L62.40 17.09Q58.87 17.09 56.93 15.44Q54.98 13.80 54.98 10.46L54.98 10.46Q54.98 7.20 56.88 5.52Q58.78 3.84 62.11 3.84L62.11 3.84ZM62.30 6.89Q60.05 6.89 59.78 9.02L59.78 9.02L64.44 9.02Q64.44 8.04 63.88 7.46Q63.31 6.89 62.30 6.89L62.30 6.89ZM77.59 3.84Q80.14 3.84 81.90 4.84Q83.66 5.83 83.66 7.92L83.66 7.92L79.22 7.92Q79.22 7.22 78.60 6.94L78.60 6.94Q78.17 6.70 77.52 6.70L77.52 6.70Q75.79 6.70 75.79 7.51L75.79 7.51Q75.79 7.97 76.39 8.16Q76.99 8.35 78.36 8.57L78.36 8.57Q80.04 8.81 81.17 9.13Q82.30 9.46 83.14 10.28Q83.98 11.11 83.98 12.60L83.98 12.60Q83.98 15.02 82.16 16.06Q80.35 17.09 77.42 17.09L77.42 17.09Q75.74 17.09 74.26 16.62Q72.77 16.15 71.83 15.17Q70.90 14.18 70.90 12.67L70.90 12.67L75.34 12.67L75.34 12.77Q75.36 13.58 76.02 13.91Q76.68 14.23 77.42 14.23L77.42 14.23Q79.42 14.23 79.42 13.30L79.42 13.30Q79.42 12.82 78.79 12.60Q78.17 12.38 76.75 12.14L76.75 12.14Q75.05 11.86 73.96 11.52Q72.86 11.18 72.05 10.38Q71.23 9.58 71.23 8.14L71.23 8.14Q71.23 5.81 73.00 4.82Q74.76 3.84 77.59 3.84L77.59 3.84ZM93.50 0Q96.67 0 98.71 1.28Q100.75 2.57 100.80 5.09L100.80 5.09L100.80 5.38L95.83 5.38L95.83 5.28Q95.83 4.56 95.30 4.08Q94.78 3.60 93.70 3.60L93.70 3.60Q92.64 3.60 92.08 3.91Q91.51 4.22 91.51 4.68L91.51 4.68Q91.51 5.33 92.28 5.64Q93.05 5.95 94.75 6.29L94.75 6.29Q96.74 6.70 98.03 7.14Q99.31 7.58 100.27 8.59Q101.23 9.60 101.26 11.33L101.26 11.33Q101.26 14.26 99.28 15.67Q97.30 17.09 93.98 17.09L93.98 17.09Q90.12 17.09 87.97 15.79Q85.82 14.50 85.82 11.21L85.82 11.21L90.84 11.21Q90.84 12.46 91.49 12.88Q92.14 13.30 93.50 13.30L93.50 13.30Q94.51 13.30 95.17 13.08Q95.83 12.86 95.83 12.19L95.83 12.19Q95.83 11.59 95.10 11.29Q94.37 10.99 92.71 10.66L92.71 10.66Q90.70 10.22 89.38 9.76Q88.06 9.29 87.07 8.21Q86.09 7.13 86.09 5.28L86.09 5.28Q86.09 2.57 88.19 1.28Q90.29 0 93.50 0L93.50 0ZM110.11 3.84Q113.45 3.84 115.36 5.53Q117.26 7.22 117.26 10.46L117.26 10.46Q117.26 13.70 115.36 15.40Q113.45 17.09 110.11 17.09L110.11 17.09Q106.78 17.09 104.88 15.41Q102.98 13.73 102.98 10.46L102.98 10.46Q102.98 7.20 104.88 5.52Q106.78 3.84 110.11 3.84L110.11 3.84ZM110.11 7.08Q107.76 7.08 107.76 9.79L107.76 9.79L107.76 11.16Q107.76 13.85 110.11 13.85L110.11 13.85Q112.49 13.85 112.49 11.16L112.49 11.16L112.49 9.79Q112.49 7.08 110.11 7.08L110.11 7.08ZM132.67 16.80L128.76 16.80L128.45 14.88Q127.70 15.91 126.49 16.50Q125.28 17.09 123.94 17.09L123.94 17.09Q121.73 17.09 120.62 15.86Q119.52 14.64 119.52 12.34L119.52 12.34L119.52 4.13L124.30 4.13L124.30 11.76Q124.30 12.58 124.72 13.07Q125.14 13.56 125.90 13.56L125.90 13.56Q126.79 13.56 127.34 12.98Q127.90 12.41 127.90 11.57L127.90 11.57L127.90 4.13L132.67 4.13L132.67 16.80ZM141.60 3.84Q144.14 3.84 145.91 4.84Q147.67 5.83 147.67 7.92L147.67 7.92L143.23 7.92Q143.23 7.22 142.61 6.94L142.61 6.94Q142.18 6.70 141.53 6.70L141.53 6.70Q139.80 6.70 139.80 7.51L139.80 7.51Q139.80 7.97 140.40 8.16Q141 8.35 142.37 8.57L142.37 8.57Q144.05 8.81 145.18 9.13Q146.30 9.46 147.14 10.28Q147.98 11.11 147.98 12.60L147.98 12.60Q147.98 15.02 146.17 16.06Q144.36 17.09 141.43 17.09L141.43 17.09Q139.75 17.09 138.26 16.62Q136.78 16.15 135.84 15.17Q134.90 14.18 134.90 12.67L134.90 12.67L139.34 12.67L139.34 12.77Q139.37 13.58 140.03 13.91Q140.69 14.23 141.43 14.23L141.43 14.23Q143.42 14.23 143.42 13.30L143.42 13.30Q143.42 12.82 142.80 12.60Q142.18 12.38 140.76 12.14L140.76 12.14Q139.06 11.86 137.96 11.52Q136.87 11.18 136.06 10.38Q135.24 9.58 135.24 8.14L135.24 8.14Q135.24 5.81 137.00 4.82Q138.77 3.84 141.60 3.84L141.60 3.84Z" transform="translate(51, 4.589)"></path></svg>